<?xml version="1.0" encoding="utf-8"?>
<!-- Svg Vector Icons : http://www.onlinewebfonts.com/icon -->
<!DOCTYPE svg PUBLIC "-//W3C//DTD SVG 1.1//EN" "http://www.w3.org/Graphics/SVG/1.1/DTD/svg11.dtd">
<svg version="1.1" xmlns="http://www.w3.org/2000/svg" xmlns:xlink="http://www.w3.org/1999/xlink" x="0px" y="0px" viewBox="0 0 1000 1000" enable-background="new 0 0 1000 1000" xml:space="preserve">
<metadata> Svg Vector Icons : http://www.onlinewebfonts.com/icon </metadata>
<g><path d="M500,990C228.5,990,10,771.5,10,500C10,228.5,228.5,10,500,10c271.5,0,490,218.5,490,490C990,771.5,771.5,990,500,990z M500,50.9C250.9,50.9,50.8,250.9,50.8,500c0,249.1,200.1,449.1,449.2,449.1c249.1,0,449.2-200.1,449.2-449.1C949.2,250.9,749.1,50.9,500,50.9z M659.3,559.2L796,800.1L555.1,665.4L659.3,559.2z M416.3,587.8c-47-47-47-126.6,0-173.5c47-47,126.6-47,173.5,0c47,47,47,126.6,0,173.5C540.8,634.7,463.3,634.7,416.3,587.8z M212.1,197.9L453,332.6L348.9,436.7L212.1,197.9z"/></g>
</svg>